HIERARCHY
ROOT Hips
{
	OFFSET 0.00000 0.00000 0.00000
	CHANNELS 6 Xposition Yposition Zposition Zrotation Yrotation Xrotation 
	JOINT LHipJoint
	{
		OFFSET 0 0 0
		CHANNELS 3 Zrotation Yrotation Xrotation
		JOINT LeftHip
		{
			OFFSET 1.84395 -1.68683 0.74144
			CHANNELS 3 Zrotation Yrotation Xrotation
			JOINT LeftKnee
			{
				OFFSET 2.27037 -6.23779 0.00000
				CHANNELS 3 Zrotation Yrotation Xrotation
				JOINT LeftAnkle
				{
					OFFSET 2.56918 -7.05877 0.00000
					CHANNELS 3 Zrotation Yrotation Xrotation
					JOINT LeftToe
					{
						OFFSET 0.22276 -0.61202 1.71784
						CHANNELS 3 Zrotation Yrotation Xrotation
						End Site
						{
							OFFSET 0.00000 -0.00000 0.91613
						}
					}
				}
			}
		}
	}
	JOINT RHipJoint
	{
		OFFSET 0 0 0
		CHANNELS 3 Zrotation Yrotation Xrotation
		JOINT RightHip
		{
			OFFSET -1.76833 -1.68684 0.74144
			CHANNELS 3 Zrotation Yrotation Xrotation
			JOINT RightKnee
			{
				OFFSET -2.49360 -6.85110 0.00000
				CHANNELS 3 Zrotation Yrotation Xrotation
				JOINT RightAnkle
				{
					OFFSET -2.55538 -7.02085 0.00000
					CHANNELS 3 Zrotation Yrotation Xrotation
					JOINT RightToe
					{
						OFFSET -0.21516 -0.59115 1.68050
						CHANNELS 3 Zrotation Yrotation Xrotation
						End Site
						{
							OFFSET -0.00000 -0.00000 0.89604
						}
					}
				}
			}
		}
	}
	JOINT lowerback
	{
		OFFSET 0 0 0
		CHANNELS 3 Zrotation Yrotation Xrotation
		JOINT Chest
		{
			OFFSET 0.06382 1.72312 -0.19613
			CHANNELS 3 Zrotation Yrotation Xrotation
			JOINT Chest2
			{
				OFFSET -0.00055 1.73507 0.23859
				CHANNELS 3 Zrotation Yrotation Xrotation
				JOINT lowerneck
				{
					OFFSET 0 0 0
					CHANNELS 3 Zrotation Yrotation Xrotation
					JOINT Neck
					{
						OFFSET 0.03638 1.65562 0.09633
						CHANNELS 3 Zrotation Yrotation Xrotation
						JOINT Head
						{
							OFFSET 0.06388 1.62807 -0.32386
							CHANNELS 3 Zrotation Yrotation Xrotation
							End Site
							{
								OFFSET 0.00995 1.67644 -0.12021
							}
						}
					}
				}
				JOINT LeftCollar
				{
					OFFSET 0 0 0
					CHANNELS 3 Zrotation Yrotation Xrotation
					JOINT LeftShoulder
					{
						OFFSET 3.09648 1.42991 0.28122
CHANNELS 3 Zrotation Xrotation Yrotation
						JOINT LeftElbow
						{
OFFSET 0 -5.118780 -0.000000
CHANNELS 3 Zrotation Xrotation Yrotation
							JOINT LeftWrist
							{
OFFSET 0 -3.599710 0.000000
CHANNELS 3 Zrotation Xrotation Yrotation
								JOINT lhand
								{
									OFFSET 0 0 0
CHANNELS 3 Zrotation Xrotation Yrotation
									JOINT LFingers
									{
OFFSET 0 -0.628770 0.000000
CHANNELS 3 Zrotation Xrotation Yrotation
										End Site
										{
OFFSET 0 -0.506930 0.000000
										}
									}
								}
								JOINT LThumb
								{
OFFSET 0 0.000000 0.000000
CHANNELS 3 Zrotation Xrotation Yrotation
									End Site
									{
OFFSET 0 -0.514670 0.514670
									}
								}
							}
						}
					}
				}
				JOINT RightCollar
				{
					OFFSET 0 0 0
					CHANNELS 3 Zrotation Yrotation Xrotation
					JOINT RightShoulder
					{
						OFFSET -3.33565 1.14597 0.05047
CHANNELS 3 Zrotation Xrotation Yrotation
						JOINT RightElbow
						{
OFFSET 0 -5.490200 0.000000
CHANNELS 3 Zrotation Xrotation Yrotation
							JOINT RightWrist
							{
OFFSET 0 -3.206590 -0.000000
CHANNELS 3 Zrotation Xrotation Yrotation
								JOINT rhand
								{
									OFFSET 0 0 0
CHANNELS 3 Zrotation Xrotation Yrotation
									JOINT RFingers
									{
OFFSET 0 -0.691880 0.000000
CHANNELS 3 Zrotation Xrotation Yrotation
										End Site
										{
OFFSET 0 -0.557810 0.000000
										}
									}
								}
								JOINT RThumb
								{
OFFSET 0 0.000000 0.000000
CHANNELS 3 Zrotation Xrotation Yrotation
									End Site
									{
OFFSET 0 -0.566330 0.566330
									}
								}
							}
						}
					}
				}
			}
		}
	}
}
MOTION
Frames: 10
Frame Time: 0.008333333333333333
0.693100 17.457500 9.348900 -10.569500 -0.744300 8.893800 0.000000 0.000000 0.000000 -17.983400 -40.074900 25.369400 0.067200 -1.673000 -4.602700 -5.124800 41.798200 -40.894700 0.195300 2.846000 7.850300 0.000000 0.000000 0.000000 29.747200 24.799000 6.114400 -0.016400 -0.827900 2.275300 0.804300 -19.125900 -18.935900 -0.005000 -0.457700 1.257700 7.056500 -0.124000 -0.298600 3.111600 0.383700 -8.633200 -0.661600 -0.204900 -8.966300 -10.728800 -12.359200 -2.646100 8.886200 -17.537700 15.323000 3.124500 -8.593500 6.842700 -0.000000 0.000000 0.000000 -3.897200 14.230900 1.557600 13.816800 -22.472200 2.757700 16.107300 16.567800 12.480600 0.000000 0.000000 0.000000 -7.125000 0.000000 0.000000 -7.727800 17.079500 -5.164900 -0.000000 0.000000 0.000000 -0.945800 12.796700 -14.145600 -14.870400 -23.965200 -3.173100 9.253000 36.387200 29.409800 0.000000 0.000000 0.000000 7.125000 0.000000 -0.000000 41.673200 54.301000 -10.967400
0.680096 17.443134 9.353255 -10.635748 -0.812881 9.444992 0.000000 0.000000 0.000000 -17.424244 -40.352864 24.809588 0.069092 -1.696372 -4.667250 -4.937061 41.664282 -41.421931 0.231003 3.093433 8.539108 0.000000 0.000000 0.000000 29.717925 25.394605 5.680115 -0.017589 -0.855584 2.351504 0.849529 -19.431867 -18.996446 -0.063094 1.619113 -4.454289 6.928091 -0.062749 -0.915478 3.173967 0.413071 -8.794585 -0.526481 -0.176103 -8.778193 -10.702254 -12.419430 -2.634505 8.753727 -17.613538 15.445777 3.069166 -8.636082 6.873630 0.000000 0.000000 0.000000 -3.766098 14.232463 1.253786 13.750344 -22.376706 2.732353 16.220859 16.304512 12.838384 0.000000 0.000000 0.000000 -7.125000 0.000000 0.000000 -7.650296 16.703433 -5.175405 0.000000 0.000000 0.000000 -1.007777 12.807170 -13.959744 -14.815993 -23.889167 -3.151071 9.210970 36.339533 29.324666 0.000000 0.000000 0.000000 7.125000 0.000000 0.000000 41.563091 54.242908 -10.866011
0.657746 17.453086 9.386583 -10.001043 -0.825825 10.472806 0.000000 0.000000 0.000000 -17.667861 -41.450551 24.115384 0.068043 -1.683313 -4.631216 -4.955841 42.070246 -42.346511 0.259941 3.280337 9.060185 0.000000 0.000000 0.000000 28.609500 25.979942 4.788576 -0.015632 -0.806255 2.215945 0.854689 -19.524846 -19.134798 -0.008246 -0.574367 1.578249 5.960705 0.102370 -2.577814 2.898857 0.446207 -9.039170 -0.287194 -0.087801 -8.054712 -10.635466 -12.383797 -1.945247 9.304566 -17.699827 15.133590 3.274047 -8.669260 6.708488 0.000000 0.000000 0.000000 -3.323151 14.398737 -0.295845 13.900259 -22.591981 2.789654 16.708849 15.149105 10.263131 0.000000 0.000000 0.000000 -7.125000 0.000000 0.000000 -7.313693 19.320435 -4.518865 0.000000 0.000000 0.000000 -0.734297 12.752501 -14.057638 -14.583179 -23.562288 -3.057394 9.094061 35.285230 29.710507 0.000000 0.000000 0.000000 7.125000 0.000000 0.000000 41.791694 54.563995 -11.298047
0.657876 17.454184 9.385856 -9.979080 -0.857340 10.496108 0.000000 0.000000 0.000000 -17.697057 -41.476701 24.113354 0.067584 -1.676740 -4.613151 -4.860135 41.970142 -42.517364 0.284697 3.431757 9.483086 0.000000 0.000000 0.000000 28.577592 26.028619 4.777321 -0.015484 -0.803507 2.208234 0.876972 -19.637132 -19.083746 -0.005532 -0.480946 1.321502 5.942116 0.105439 -2.622686 2.908612 0.445247 -9.018467 -0.267136 -0.085253 -8.005441 -10.594227 -12.373729 -2.108780 9.245462 -17.674474 15.241091 3.239556 -8.650902 6.758882 0.000000 0.000000 0.000000 -3.317582 14.324206 -0.079548 13.867826 -22.545463 2.777265 16.623625 15.388868 10.045359 0.000000 0.000000 0.000000 -7.125000 0.000000 0.000000 -7.376166 19.550448 -4.519885 0.000000 0.000000 0.000000 -0.675474 12.630769 -13.865152 -14.642582 -23.645774 -3.081191 8.963269 35.155201 29.903271 0.000000 0.000000 0.000000 7.125000 0.000000 0.000000 41.843426 54.738134 -11.507974
0.657543 17.454421 9.385757 -9.967068 -0.924928 10.522778 0.000000 0.000000 0.000000 -17.752644 -41.515807 24.165062 0.068368 -1.687326 -4.642196 -4.955586 42.146131 -42.533390 0.274156 3.368097 9.305258 0.000000 0.000000 0.000000 28.549620 26.083620 4.767096 -0.015311 -0.798531 2.194687 0.873569 -19.611033 -19.070623 -0.008525 -0.594957 1.634812 5.888748 0.097591 -2.705008 2.934036 0.427733 -9.018303 -0.210307 -0.088137 -7.957802 -10.437237 -12.352720 -2.173921 9.069524 -17.632067 15.364153 3.161871 -8.629373 6.774479 0.000000 0.000000 0.000000 -3.315176 14.365790 0.118243 13.826657 -22.486425 2.761479 16.627793 15.424467 10.246224 0.000000 0.000000 0.000000 -7.125000 0.000000 0.000000 -7.371250 19.342992 -4.551240 0.000000 0.000000 0.000000 -0.715328 12.572885 -13.579350 -14.703839 -23.731926 -3.105787 9.194649 34.835313 29.754709 0.000000 0.000000 0.000000 7.125000 0.000000 0.000000 41.919137 54.578756 -11.359148
0.658087 17.453973 9.381141 -9.899029 -0.986284 10.539089 0.000000 0.000000 0.000000 -17.830455 -41.516479 24.133568 0.067740 -1.678761 -4.618749 -4.925161 42.133381 -42.633609 0.281606 3.412922 9.430479 0.000000 0.000000 0.000000 28.446311 26.115271 4.740729 -0.015160 -0.795198 2.185449 0.863075 -19.551880 -19.081497 -0.009160 -0.618111 1.698601 5.841786 0.119247 -2.702993 2.910577 0.453658 -9.003259 -0.210459 -0.072438 -7.940335 -10.489191 -12.367630 -2.174909 9.150349 -17.662336 15.354321 3.190445 -8.641571 6.786827 0.000000 0.000000 0.000000 -3.303681 14.398357 0.191918 13.826479 -22.486042 2.761376 16.680113 15.481689 10.397843 0.000000 0.000000 0.000000 -7.125000 0.000000 0.000000 -7.332967 19.183130 -4.553567 0.000000 0.000000 0.000000 -0.707988 12.519699 -13.277728 -14.787783 -23.849626 -3.139629 9.324121 34.430192 29.613926 0.000000 0.000000 0.000000 7.125000 0.000000 0.000000 41.911720 54.445199 -11.208999
0.658056 17.454384 9.377076 -9.865141 -1.061845 10.577301 0.000000 0.000000 0.000000 -17.817629 -41.465681 24.033729 0.067464 -1.675533 -4.609808 -5.020211 42.244338 -42.495121 0.253774 3.241095 8.950715 0.000000 0.000000 0.000000 28.328389 25.991070 4.578041 -0.015648 -0.807670 2.219821 0.840207 -19.366867 -18.978092 -0.007740 -0.567330 1.558934 5.799152 0.119495 -2.690477 2.902633 0.454559 -9.023444 -0.194859 -0.070192 -7.969173 -10.618458 -12.336045 -2.090411 9.381340 -17.651774 15.287191 3.287815 -8.632861 6.782699 0.000000 0.000000 0.000000 -3.291607 14.437264 0.464797 13.753940 -22.381856 2.733743 16.714568 15.669146 10.531740 0.000000 0.000000 0.000000 -7.125000 0.000000 0.000000 -7.307723 19.042829 -4.560581 0.000000 0.000000 0.000000 -0.671227 12.548170 -13.049567 -14.867051 -23.960587 -3.171788 9.101113 34.393296 29.583382 0.000000 0.000000 0.000000 7.125000 0.000000 0.000000 41.687925 54.464359 -11.152252
0.661301 17.454419 9.375412 -9.841488 -1.072975 10.587608 0.000000 0.000000 0.000000 -17.951109 -41.592143 24.151648 0.066737 -1.666373 -4.584551 -4.864579 42.128844 -42.880965 0.299086 3.515900 9.718625 0.000000 0.000000 0.000000 28.286808 25.977648 4.609403 -0.014193 -0.769042 2.113534 0.846290 -19.383250 -18.931312 -0.005199 -0.466278 1.281167 5.812334 0.101038 -2.711965 2.885711 0.426166 -9.009220 -0.219075 -0.085342 -7.942241 -10.653971 -12.373249 -2.228631 9.485315 -17.726260 15.456302 3.302965 -8.656328 6.881635 0.000000 0.000000 0.000000 -3.264776 14.395637 0.767107 13.650088 -22.232258 2.694289 16.660464 15.892607 10.412656 0.000000 0.000000 0.000000 -7.125000 0.000000 0.000000 -7.346820 19.169152 -4.564551 0.000000 0.000000 0.000000 -0.681380 12.566400 -12.850769 -14.939245 -24.061398 -3.201116 9.315948 34.068403 29.602161 0.000000 0.000000 0.000000 7.125000 0.000000 0.000000 41.894132 54.437654 -11.194462
0.661779 17.454436 9.372235 -9.818062 -1.139115 10.620337 0.000000 0.000000 0.000000 -18.046436 -41.701967 24.224793 0.066379 -1.662644 -4.574195 -4.892291 42.247995 -43.050545 0.303732 3.543248 9.795078 0.000000 0.000000 0.000000 28.225545 26.004379 4.581310 -0.013800 -0.758129 2.083609 0.845714 -19.371960 -18.914150 -0.005508 -0.479795 1.318322 5.747773 0.097756 -2.753051 2.906970 0.417469 -8.999497 -0.160837 -0.083392 -7.907491 -10.781891 -12.346838 -2.206039 9.651960 -17.710725 15.438517 3.375916 -8.646108 6.897545 0.000000 0.000000 0.000000 -3.349487 14.436023 0.975758 13.640885 -22.219007 2.690821 16.640180 16.090670 10.278664 0.000000 0.000000 0.000000 -7.125000 0.000000 0.000000 -7.362260 19.308655 -4.551254 0.000000 0.000000 0.000000 -0.714935 12.544702 -12.990450 -14.957862 -24.087329 -3.208710 9.438131 34.258656 29.585899 0.000000 0.000000 0.000000 7.125000 0.000000 0.000000 41.988088 54.401680 -11.187307
0.662256 17.454268 9.371496 -9.865245 -1.214891 10.637320 0.000000 0.000000 0.000000 -18.009113 -41.692438 24.259446 0.067724 -1.678729 -4.618618 -4.894027 42.300833 -43.169538 0.307478 3.564755 9.855295 0.000000 0.000000 0.000000 28.282178 26.098330 4.617776 -0.013524 -0.751520 2.065313 0.850297 -19.397126 -18.907480 -0.005336 -0.472943 1.299555 5.758213 0.106999 -2.822102 2.915975 0.423168 -8.975189 -0.158064 -0.079388 -7.840336 -10.724582 -12.352955 -2.257001 9.622876 -17.719970 15.496346 3.353210 -8.646655 6.917867 0.000000 0.000000 0.000000 -3.393754 14.431533 1.211461 13.618384 -22.186487 2.682304 16.358223 16.524801 10.181683 0.000000 0.000000 0.000000 -7.125000 0.000000 0.000000 -7.563053 19.426165 -4.657449 0.000000 0.000000 0.000000 -0.767841 12.478453 -13.134660 -14.862351 -23.953992 -3.169789 9.176627 34.405590 29.793786 0.000000 0.000000 0.000000 7.125000 0.000000 0.000000 41.937156 54.612365 -11.402634
